<?xml version="1.0" encoding="UTF-8"?>
<svg xmlns="http://www.w3.org/2000/svg" viewBox="0 0 567 160">
<g transform="rotate(-1 283.5 80.0)">
  <rect x="40" y="40" width="487.6" height="80" fill="#1B1612"/>
  <rect x="40" y="40" width="487.6" height="80" fill="none" stroke="#FBF6EA" stroke-width="4"/>
  <g fill="#FBF6EA"><g transform="translate(72.000,92.320) scale(0.044000,-0.044000)"><path d="M66 0V730H216V446H384V730H534V0H384V311H216V0Z"/></g>
<g transform="translate(100.400,92.320) scale(0.044000,-0.044000)"><path d="M300 -10Q190 -10 125.0 52.0Q60 114 60 220V510Q60 617 125.0 678.5Q190 740 300 740Q410 740 475.0 678.5Q540 617 540 510V220Q540 114 475.0 52.0Q410 -10 300 -10ZM300 120Q390 120 390 210V520Q390 610 300 610Q210 610 210 520V210Q210 120 300 120Z"/></g>
<g transform="translate(128.800,92.320) scale(0.044000,-0.044000)"><path d="M66 0V730H301Q374 730 428.5 706.5Q483 683 513.5 641.0Q544 599 544 542Q544 480 510.0 438.5Q476 397 422 389V387Q463 383 494.5 358.5Q526 334 543.5 296.0Q561 258 561 211Q561 148 529.5 100.5Q498 53 441.5 26.5Q385 0 310 0ZM211 436H299Q343 436 368.0 459.5Q393 483 393 523Q393 564 368.0 586.5Q343 609 299 609H211ZM211 121H305Q354 121 382.0 147.0Q410 173 410 219Q410 265 382.0 291.5Q354 318 305 318H211Z"/></g>
<g transform="translate(157.200,92.320) scale(0.044000,-0.044000)"><path d="M66 0V730H301Q374 730 428.5 706.5Q483 683 513.5 641.0Q544 599 544 542Q544 480 510.0 438.5Q476 397 422 389V387Q463 383 494.5 358.5Q526 334 543.5 296.0Q561 258 561 211Q561 148 529.5 100.5Q498 53 441.5 26.5Q385 0 310 0ZM211 436H299Q343 436 368.0 459.5Q393 483 393 523Q393 564 368.0 586.5Q343 609 299 609H211ZM211 121H305Q354 121 382.0 147.0Q410 173 410 219Q410 265 382.0 291.5Q354 318 305 318H211Z"/></g>
<g transform="translate(185.600,92.320) scale(0.044000,-0.044000)"><path d="M225 0V260L15 730H172L264 510Q278 477 288.5 440.0Q299 403 303 380Q308 403 317.5 440.0Q327 477 340 510L429 730H585L375 260V0Z"/></g>
<g transform="translate(214.000,92.320) scale(0.044000,-0.044000)"><path d="M80 0V135H225V595H80V730H520V595H375V135H520V0Z"/></g>
<g transform="translate(242.400,92.320) scale(0.044000,-0.044000)"><path d="M302 -10Q225 -10 167.5 17.0Q110 44 78.5 93.5Q47 143 47 210H193Q193 169 222.5 144.5Q252 120 302 120Q351 120 378.5 143.5Q406 167 406 206Q406 237 388.0 261.5Q370 286 335 294L246 315Q160 335 109.5 392.5Q59 450 59 530Q59 628 122.5 684.0Q186 740 296 740Q406 740 471.0 683.5Q536 627 536 531H390Q390 569 365.0 590.5Q340 612 296 612Q253 612 229.0 591.0Q205 570 205 535Q205 478 274 462L366 441Q452 422 502.5 358.5Q553 295 553 206Q553 141 522.5 92.0Q492 43 435.5 16.5Q379 -10 302 -10Z"/></g>
<g transform="translate(270.800,92.320) scale(0.044000,-0.044000)"><path d="M225 0V595H40V730H560V595H375V0Z"/></g></g>
  <g fill="#E8B339"><g transform="translate(313.200,92.320) scale(0.044000,-0.044000)"><path d="M50 -110 395 830H550L205 -110Z"/></g></g>
  <g fill="#FBF6EA"><g transform="translate(353.600,92.320) scale(0.044000,-0.044000)"><path d="M304 -10Q231 -10 176.0 17.5Q121 45 90.5 94.5Q60 144 60 210V520Q60 587 90.5 636.0Q121 685 176.0 712.5Q231 740 304 740Q378 740 432.5 712.5Q487 685 517.5 636.0Q548 587 548 520H398Q398 564 373.5 587.0Q349 610 304 610Q259 610 234.5 587.0Q210 564 210 520V210Q210 167 234.5 143.5Q259 120 304 120Q349 120 373.5 143.5Q398 167 398 210V278H290V405H548V210Q548 144 517.5 94.5Q487 45 432.5 17.5Q378 -10 304 -10Z"/></g>
<g transform="translate(382.000,92.320) scale(0.044000,-0.044000)"><path d="M25 0 204 730H394L575 0H422L387 165H213L178 0ZM238 285H361L326 461Q319 499 311.5 536.5Q304 574 300 595Q296 574 289.5 537.0Q283 500 275 462Z"/></g>
<g transform="translate(410.400,92.320) scale(0.044000,-0.044000)"><path d="M42 0V730H225L299 418L373 730H558V0H421V280Q421 390 430.5 491.5Q440 593 450 670L358 310H238L148 661Q158 596 168.5 495.5Q179 395 179 280V0Z"/></g>
<g transform="translate(438.800,92.320) scale(0.044000,-0.044000)"><path d="M80 0V730H530V600H227V436H495V312H227V130H530V0Z"/></g>
<g transform="translate(467.200,92.320) scale(0.044000,-0.044000)"><path d="M302 -10Q225 -10 167.5 17.0Q110 44 78.5 93.5Q47 143 47 210H193Q193 169 222.5 144.5Q252 120 302 120Q351 120 378.5 143.5Q406 167 406 206Q406 237 388.0 261.5Q370 286 335 294L246 315Q160 335 109.5 392.5Q59 450 59 530Q59 628 122.5 684.0Q186 740 296 740Q406 740 471.0 683.5Q536 627 536 531H390Q390 569 365.0 590.5Q340 612 296 612Q253 612 229.0 591.0Q205 570 205 535Q205 478 274 462L366 441Q452 422 502.5 358.5Q553 295 553 206Q553 141 522.5 92.0Q492 43 435.5 16.5Q379 -10 302 -10Z"/></g></g>
</g>
</svg>
